<svg width="142" height="28" viewBox="0 0 142 28" fill="none" xmlns="http://www.w3.org/2000/svg">
<path d="M14.2709 3L17.3382 11.3602L26.387 11.6645L19.3313 17.2882L21.6325 25.8L14.2709 20.7839L6.75508 25.8L9.20938 17.2882L2.1537 11.6645L11.0496 11.3602L14.2709 3Z" fill="#218D4F" stroke="#218D4F" stroke-width="1.52" stroke-miterlimit="10"/>
<path d="M42.4918 3L45.5591 11.3602L54.6079 11.6645L47.5533 17.2882L50.0065 25.8L42.4918 20.7838L34.976 25.8L37.4303 17.2882L30.3746 11.6645L39.4244 11.3602L42.4918 3Z" fill="#218D4F" stroke="#218D4F" stroke-width="1.52" stroke-miterlimit="10"/>
<path d="M70.7126 3L73.78 11.3602L82.8287 11.6645L75.7741 17.2882L78.2284 25.8L70.7126 20.7838L63.1968 25.8L65.6511 17.2882L58.5965 11.6645L67.6453 11.3602L70.7126 3Z" fill="#218D4F" stroke="#218D4F" stroke-width="1.52" stroke-miterlimit="10"/>
<path d="M98.9335 3L102.001 11.3602L111.051 11.6645L103.995 17.2882L106.449 25.8L98.9335 20.7838L91.4188 25.8L93.872 17.2882L86.8174 11.6645L95.8662 11.3602L98.9335 3Z" fill="#218D4F" fill-opacity="0.49" stroke="#218D4F" stroke-opacity="0.49" stroke-width="1.52" stroke-miterlimit="10"/>
<path d="M127.154 3L130.376 11.3602L139.272 11.6645L132.216 17.2882L134.67 25.8L127.154 20.7838L119.793 25.8L122.094 17.2882L115.038 11.6645L124.087 11.3602L127.154 3Z" fill="#218D4F" fill-opacity="0.49" stroke="#218D4F" stroke-opacity="0.49" stroke-width="1.52" stroke-miterlimit="10"/>
</svg>
