<svg width="142" height="28" viewBox="0 0 142 28" fill="none" xmlns="http://www.w3.org/2000/svg">
<path d="M14.4172 2.6001L17.4845 10.9602L26.5333 11.2646L19.4776 16.8883L21.7789 25.4001L14.4172 20.384L6.9014 25.4001L9.3557 16.8883L2.30002 11.2646L11.1959 10.9602L14.4172 2.6001Z" fill="#218D4F" stroke="#218D4F" stroke-width="1.52" stroke-miterlimit="10"/>
<path d="M42.6381 2.6001L45.7054 10.9602L54.7542 11.2646L47.6996 16.8883L50.1528 25.4001L42.6381 20.384L35.1223 25.4001L37.5766 16.8883L30.5209 11.2646L39.5707 10.9602L42.6381 2.6001Z" fill="#218D4F" stroke="#218D4F" stroke-width="1.52" stroke-miterlimit="10"/>
<path d="M70.8589 2.6001L73.9263 10.9602L82.9751 11.2646L75.9204 16.8883L78.3747 25.4001L70.8589 20.384L63.3431 25.4001L65.7974 16.8883L58.7428 11.2646L67.7916 10.9602L70.8589 2.6001Z" fill="#218D4F" stroke="#218D4F" stroke-width="1.52" stroke-miterlimit="10"/>
<path d="M99.0798 2.6001L102.147 10.9602L111.197 11.2646L104.141 16.8883L106.596 25.4001L99.0798 20.384L91.5651 25.4001L94.0183 16.8883L86.9637 11.2646L96.0125 10.9602L99.0798 2.6001Z" fill="#218D4F" stroke="#218D4F" stroke-width="1.52" stroke-miterlimit="10"/>
<path d="M127.301 2.6001L130.522 10.9602L139.418 11.2646L132.362 16.8883L134.817 25.4001L127.301 20.384L119.939 25.4001L122.24 16.8883L115.185 11.2646L124.233 10.9602L127.301 2.6001Z" fill="#218D4F" fill-opacity="0.49" stroke="#218D4F" stroke-opacity="0.49" stroke-width="1.52" stroke-miterlimit="10"/>
</svg>
