<svg width="36" height="42" viewBox="0 0 36 42" fill="none" xmlns="http://www.w3.org/2000/svg">
<path fill-rule="evenodd" clip-rule="evenodd" d="M17.6 41.8095C7.87977 41.8095 0 39.0925 0 35.7405C0 33.143 4.7398 30.933 11.3929 30.0671C14.7479 34.5659 17.6 37.0891 17.6 37.0891C17.6 37.0891 20.4522 34.5654 23.8076 30.0671C30.4607 30.9331 35.2 33.143 35.2 35.7405C35.2 39.0925 27.3207 41.8095 17.6 41.8095ZM17.6 35.0659C17.6 35.0659 8.44787 24.2759 5.63401 16.1044C5.18419 14.8597 4.92785 13.5289 4.92785 12.1384C4.92785 5.43484 10.6012 0 17.5998 0C24.5981 0 30.2718 5.43448 30.2718 12.1384C30.2718 13.5289 30.0155 14.8597 29.5667 16.1044C26.7518 24.9511 17.5998 35.0659 17.5998 35.0659H17.6ZM17.6 7.41722C14.8785 7.41722 12.6721 9.53072 12.6721 12.1376C12.6721 14.7445 14.8785 16.858 17.6 16.858C20.3215 16.858 22.5279 14.7445 22.5279 12.1376C22.5279 9.53072 20.3215 7.41722 17.6 7.41722Z" fill="#F6F8FF"/>
</svg>
