<svg width="94" height="95" viewBox="0 0 94 95" fill="none" xmlns="http://www.w3.org/2000/svg">
<path d="M1.45639 91.8313C0.810818 91.8313 0.287522 92.3538 0.287522 93.0002C0.287522 93.6458 0.810004 94.1691 1.45639 94.1691H92.6023C93.2479 94.1691 93.7712 93.6466 93.7712 93.0002C93.7712 92.3546 93.2487 91.8313 92.6023 91.8313H84.2442V85.4964C87.538 85.1426 90.4618 83.3135 92.2119 80.432C94.1665 77.2148 94.2978 73.2989 92.5176 69.8772L84.0682 56.3424C83.6411 55.6577 82.5114 55.6577 82.0851 56.3424L73.5925 69.958C71.8579 73.2992 71.9884 77.2148 73.943 80.4329C75.693 83.3135 78.6153 85.1425 81.9082 85.4972L81.9074 91.8313H67.3007V30.2869H70.5367C70.9198 30.2869 71.2785 30.0987 71.4977 29.784C71.7154 29.4694 71.7659 29.0675 71.6314 28.7081L65.7887 13.129C65.6176 12.6733 65.1823 12.3709 64.6949 12.3709H24.157V1.85451C24.157 1.20893 23.6346 0.685638 22.9882 0.685638H11.4455C10.7999 0.685638 10.2766 1.20812 10.2766 1.85451V12.3709H7.2975C6.81007 12.3709 6.37398 12.6733 6.20281 13.129L0.360121 28.7081C0.225628 29.0676 0.275349 29.4694 0.493797 29.784C0.713064 30.0986 1.07089 30.2869 1.45481 30.2869H4.68999L4.69081 91.8313H1.45639ZM75.9402 79.2184C74.4119 76.7046 74.3108 73.6447 75.6207 71.1154L83.0772 59.1684L90.4891 71.0355C91.8446 73.6464 91.7419 76.7063 90.2152 79.2201C88.6869 81.7339 86.0191 83.2344 83.0773 83.2344C80.1347 83.2336 77.4669 81.733 75.9403 79.2184H75.9402ZM41.2952 91.8313H30.6947V74.0245H41.2952V91.8313ZM12.6138 3.02246H21.8196V12.371H12.6138V3.02246ZM8.10787 14.7078H63.8847L68.8512 27.9501H3.1418L8.10787 14.7078ZM7.02704 30.2869H64.9636V91.8313H43.6315V72.8564C43.6315 72.2108 43.109 71.6875 42.4626 71.6875H29.5261C28.8805 71.6875 28.3572 72.21 28.3572 72.8564V91.8313H7.02512L7.02704 30.2869Z" fill="#218D4F" fill-opacity="0.46"/>
<path d="M30.6072 48.85H41.3844C42.03 48.85 42.5533 48.3275 42.5533 47.6811V42.2925C42.5533 38.6775 39.6115 35.7357 35.9966 35.7357C32.3816 35.7357 29.4398 38.6775 29.4398 42.2925V47.6811C29.439 48.3275 29.9615 48.85 30.6071 48.85H30.6072ZM31.7761 42.2924C31.7761 39.9654 33.6696 38.0725 35.9959 38.0725C38.323 38.0725 40.2158 39.966 40.2158 42.2924V46.5123H31.7763L31.7761 42.2924Z" fill="#218D4F" fill-opacity="0.46"/>
<path d="M30.6072 66.8246H41.3844C42.03 66.8246 42.5533 66.3021 42.5533 65.6557V60.2671C42.5533 56.6522 39.6115 53.7112 35.9966 53.7112C32.3816 53.7112 29.4398 56.6522 29.4398 60.2671V65.6557C29.439 66.3013 29.9615 66.8246 30.6071 66.8246H30.6072ZM31.7761 60.267C31.7761 57.94 33.6696 56.048 35.9959 56.048C38.323 56.048 40.2158 57.9398 40.2158 60.267V64.4869H31.7763L31.7761 60.267Z" fill="#218D4F" fill-opacity="0.46"/>
<path d="M18.1142 35.7352C14.4992 35.7352 11.5583 38.677 11.5583 42.292V47.6806C11.5583 48.3262 12.0808 48.8495 12.7272 48.8495H23.503C24.1485 48.8495 24.6718 48.327 24.6718 47.6806V42.292C24.671 38.677 21.7292 35.7352 18.1142 35.7352H18.1142ZM22.3341 46.5125H13.8954V42.2926C13.8954 39.9656 15.7872 38.0727 18.1144 38.0727C20.4416 38.0727 22.3343 39.9662 22.3343 42.2926L22.3341 46.5125Z" fill="#218D4F" fill-opacity="0.46"/>
<path d="M18.1142 53.7119C14.4992 53.7119 11.5583 56.6529 11.5583 60.2679V65.6565C11.5583 66.3021 12.0808 66.8254 12.7272 66.8254H23.503C24.1485 66.8254 24.6718 66.3029 24.6718 65.6565V60.2679C24.671 56.6529 21.7292 53.7119 18.1142 53.7119H18.1142ZM22.3341 64.4877H13.8954V60.2679C13.8954 57.9408 15.7872 56.0488 18.1144 56.0488C20.4416 56.0488 22.3343 57.9407 22.3343 60.2679L22.3341 64.4877Z" fill="#218D4F" fill-opacity="0.46"/>
<path d="M18.1142 71.6887C14.4992 71.6887 11.5583 74.6305 11.5583 78.2454V83.634C11.5583 84.2796 12.0808 84.8029 12.7272 84.8029H23.503C24.1485 84.8029 24.6718 84.2804 24.6718 83.634V78.2454C24.671 74.6305 21.7292 71.6887 18.1142 71.6887H18.1142ZM22.3341 82.4659H13.8954V78.246C13.8954 75.919 15.7872 74.0262 18.1144 74.0262C20.4416 74.0262 22.3343 75.9196 22.3343 78.246L22.3341 82.4659Z" fill="#218D4F" fill-opacity="0.46"/>
<path d="M48.4902 48.85H59.2674C59.913 48.85 60.4363 48.3275 60.4363 47.6811V42.2925C60.4363 38.6775 57.4945 35.7357 53.8796 35.7357C50.2646 35.7357 47.3228 38.6775 47.3228 42.2925V47.6811C47.322 48.3275 47.8445 48.85 48.4901 48.85H48.4902ZM49.6591 42.2924C49.6591 39.9654 51.5525 38.0725 53.8789 38.0725C56.206 38.0725 58.0988 39.966 58.0988 42.2924V46.5123H49.6593L49.6591 42.2924Z" fill="#218D4F" fill-opacity="0.46"/>
<path d="M48.4902 66.8246H59.2674C59.913 66.8246 60.4363 66.3021 60.4363 65.6557V60.2671C60.4363 56.6522 57.4945 53.7112 53.8796 53.7112C50.2646 53.7112 47.3228 56.6522 47.3228 60.2671V65.6557C47.322 66.3013 47.8445 66.8246 48.4901 66.8246H48.4902ZM49.6591 60.267C49.6591 57.94 51.5525 56.048 53.8789 56.048C56.206 56.048 58.0988 57.9398 58.0988 60.267V64.4869H49.6593L49.6591 60.267Z" fill="#218D4F" fill-opacity="0.46"/>
<path d="M48.4902 84.8013H59.2674C59.913 84.8013 60.4363 84.2788 60.4363 83.6324V78.2438C60.4363 74.6289 57.4945 71.6871 53.8796 71.6871C50.2646 71.6871 47.3228 74.6289 47.3228 78.2438V83.6324C47.322 84.2788 47.8445 84.8013 48.4901 84.8013H48.4902ZM49.6591 78.2437C49.6591 75.9167 51.5525 74.0238 53.8789 74.0238C56.206 74.0238 58.0988 75.9173 58.0988 78.2437V82.4636H49.6593L49.6591 78.2437Z" fill="#218D4F" fill-opacity="0.46"/>
</svg>
