<svg width="67" height="57" viewBox="0 0 67 57" fill="none" xmlns="http://www.w3.org/2000/svg">
<path d="M38.4752 51.8723V45.787H32.8432V38.8435H38.4752V33.7883C36.7825 32.9176 34.9123 32.3541 32.9347 32.17C32.8736 35.0613 28.6792 37.394 23.5139 37.394C18.3472 37.394 14.1542 35.0608 14.0931 32.17C6.18989 32.9086 0 39.6953 0 47.9607C0 56.7201 6.94981 56.6981 15.5217 56.6981H31.5074C36.6962 56.6981 41.288 56.7029 44.107 54.7662V51.8716L38.4752 51.8723Z" fill="#A0CEB3"/>
<path d="M23.5134 31.6704C18.27 31.6704 13.9371 25.8641 13.2409 18.3252H11.8152C12.6073 26.9106 17.5405 33.5263 23.5134 33.5263C29.4847 33.5263 34.4193 26.9117 35.2116 18.3252H33.7853C33.0886 25.8641 28.7571 31.6704 23.5134 31.6704Z" fill="#A0CEB3"/>
<path d="M11.2603 16.5391H35.7691C36.725 16.5391 37.4982 15.748 37.4982 14.7735C37.4982 13.7983 36.7255 13.0063 35.7691 13.0063H35.2983C35.2983 8.3146 32.6676 4.25152 28.8346 2.26557L27.8582 7.92236C27.7817 8.3698 27.4002 8.68506 26.969 8.68506C26.9176 8.68506 26.8642 8.68034 26.8114 8.67142C26.3206 8.58277 25.993 8.10437 26.0793 7.60186L27.1944 1.13829C26.7754 0.454799 26.0331 0 25.186 0H21.8423C20.9957 0 20.2539 0.454786 19.8345 1.13829L20.9496 7.60186C21.0364 8.10438 20.7088 8.58225 20.2175 8.67142C20.1646 8.67981 20.1117 8.68506 20.0599 8.68506C19.6286 8.68506 19.2472 8.3698 19.1707 7.92236L18.1942 2.26664C14.3602 4.25259 11.7306 8.31474 11.7306 13.0068H11.2593C10.3049 13.0068 9.53124 13.7978 9.53124 14.774C9.53227 15.7481 10.3049 16.5392 11.2603 16.5392L11.2603 16.5391Z" fill="#A0CEB3"/>
<path d="M39.7093 34.019H49.3467V38.4416H39.7093V34.019Z" fill="#A0CEB3"/>
<path d="M50.9727 34.019H60.6076V38.4416H50.9727V34.019Z" fill="#A0CEB3"/>
<path d="M39.7093 46.1907H49.3467V50.6138H39.7093V46.1907Z" fill="#A0CEB3"/>
<path d="M50.9727 46.1907H60.6076V50.6138H50.9727V46.1907Z" fill="#A0CEB3"/>
<path d="M45.3397 52.2765H54.9776V56.6996H45.3397V52.2765Z" fill="#A0CEB3"/>
<path d="M45.3397 40.1049H54.9771V44.5274H45.3397V40.1049Z" fill="#A0CEB3"/>
<path d="M34.0776 40.1049H43.7139V44.5274H34.0776V40.1049Z" fill="#A0CEB3"/>
<path d="M56.6031 40.1049H66.2395V44.5274H56.6031V40.1049Z" fill="#A0CEB3"/>
</svg>
