<svg width="33" height="49" viewBox="0 0 33 49" fill="none" xmlns="http://www.w3.org/2000/svg">
<path d="M0.935821 36.2884L0 49.3924H7.05131L7.05087 28.5044C3.43167 30.2966 0.935787 33.0966 0.935787 36.2888L0.935821 36.2884Z" fill="#A0CEB3"/>
<path d="M31.7614 36.2884C31.7614 33.0962 29.2656 30.2404 25.6463 28.5044V49.3924H32.6976L31.7614 36.2884Z" fill="#A0CEB3"/>
<path d="M17.4718 26.6564H15.2254C13.9775 26.6564 12.6669 26.7685 11.4812 27.0486L12.9789 36.0646L11.8559 49.4486H20.9038L19.7808 36.0646L21.2786 27.0486C19.9679 26.8243 18.72 26.6564 17.4717 26.6564H17.4718Z" fill="#A0CEB3"/>
<path d="M5.42862 10.7524H27.2062C28.0798 10.7524 28.7662 10.2485 28.7662 9.57619C28.7662 8.96017 28.0798 8.39999 27.2062 8.39999H26.7692C26.7692 5.31989 24.4605 2.68789 21.0284 1.39999L20.7163 2.51989C20.6541 2.79997 20.2793 3.0238 19.905 3.0238H19.7801C19.3431 2.96794 19.0314 2.63161 19.1559 2.35192L19.5929 0.72812C19.2186 0.28007 18.5322 0 17.7835 0H14.7884C14.0398 0 13.3533 0.28008 12.9791 0.72812L13.4161 2.35192C13.4783 2.68786 13.2289 2.96794 12.7919 3.0238H12.667C12.2926 3.0238 11.9183 2.79997 11.8556 2.51989L11.5435 1.39999C8.11143 2.68789 5.80275 5.31989 5.80275 8.39999H5.36573C4.49216 8.39999 3.80573 8.9039 3.80573 9.57619C3.93066 10.1926 4.61707 10.7524 5.42836 10.7524H5.42862Z" fill="#A0CEB3"/>
<path d="M5.67822 12.7124C5.7409 19.0964 9.67182 24.7524 16.3488 24.7524C23.0259 24.7524 26.9567 19.2083 27.0195 12.7124H5.67822Z" fill="#A0CEB3"/>
</svg>
