<svg width="22" height="19" viewBox="0 0 22 19" fill="none" xmlns="http://www.w3.org/2000/svg">
<path d="M17.5752 0.888916H4.31597C3.40104 0.889449 2.52383 1.20148 1.8768 1.75623C1.22962 2.31098 0.865315 3.06322 0.863617 3.84819V15.2263C0.864446 16.0117 1.22835 16.7644 1.87553 17.3199C2.52292 17.8751 3.40056 18.1874 4.31592 18.188H17.5752C18.4908 18.1873 19.3688 17.8751 20.0164 17.3201C20.6643 16.7648 21.0288 16.0118 21.0304 15.2263V3.84819C21.0281 3.06304 20.663 2.31079 20.0154 1.75604C19.3678 1.20129 18.4903 0.889462 17.5752 0.888916H17.5752ZM20.4392 15.2288C20.4384 15.8801 20.1364 16.5043 19.5993 16.9646C19.0623 17.4247 18.3343 17.6835 17.5752 17.6835H4.31597C3.55706 17.6827 2.82946 17.4239 2.29273 16.9639C1.75579 16.5038 1.45345 15.8799 1.45196 15.2288V3.84792C1.45507 3.19772 1.75805 2.57506 2.2948 2.11617C2.83131 1.65709 3.55807 1.39911 4.31597 1.39838H17.5752C18.3344 1.39838 19.0623 1.6569 19.5993 2.11703C20.1364 2.57734 20.4384 3.20177 20.4392 3.85288V15.2288Z" fill="white"/>
<path d="M10.9474 4.67896C9.44559 4.67896 8.00534 5.19083 6.94324 6.10188C5.88135 7.01311 5.28473 8.24879 5.28473 9.5373C5.28473 10.8258 5.88135 12.0615 6.94324 12.9725C8.00534 13.8836 9.44559 14.3955 10.9474 14.3955C12.4491 14.3955 13.8895 13.8836 14.9514 12.9725C16.0133 12.0615 16.6099 10.8258 16.6099 9.5373C16.6077 8.24933 16.0102 7.01489 14.9488 6.1042C13.8873 5.19352 12.4485 4.68109 10.9475 4.679L10.9474 4.67896ZM10.9474 13.8905V13.8907C9.60146 13.8912 8.31017 13.4332 7.35816 12.617C6.40593 11.8009 5.87064 10.6935 5.87 9.53875C5.86958 8.38396 6.40381 7.27647 7.35524 6.45968C8.30667 5.64289 9.59753 5.18382 10.9433 5.18363C12.2893 5.18328 13.5804 5.64198 14.5322 6.45845C15.484 7.27492 16.0187 8.38242 16.0187 9.53721C16.0164 10.6904 15.4813 11.7959 14.5307 12.6115C13.5801 13.4271 12.2916 13.8861 10.9474 13.8881V13.8905Z" fill="white"/>
<path d="M16.9455 3.05261C16.5321 3.05386 16.1365 3.19592 15.8451 3.4475C15.5537 3.69908 15.3906 4.03958 15.3917 4.3941C15.3927 4.74881 15.5579 5.08859 15.8507 5.33874C16.1435 5.58908 16.5402 5.72936 16.9534 5.72901C17.3668 5.72847 17.7631 5.5873 18.0551 5.33643C18.347 5.08556 18.5112 4.74545 18.5112 4.39074C18.5104 4.03515 18.345 3.69448 18.0513 3.44346C17.7577 3.19259 17.36 3.05195 16.9455 3.05266L16.9455 3.05261ZM16.9455 5.22173C16.6887 5.22102 16.443 5.13301 16.2618 4.9769C16.0809 4.82062 15.9794 4.60922 15.98 4.38911C15.9804 4.16882 16.0828 3.95777 16.2647 3.80236C16.4465 3.64679 16.6927 3.55949 16.9494 3.55984C17.2062 3.56002 17.4522 3.64768 17.6337 3.80343C17.815 3.95936 17.917 4.17058 17.917 4.39068C17.917 4.6115 17.8144 4.82326 17.6322 4.9792C17.4499 5.13513 17.2028 5.22243 16.9455 5.22172L16.9455 5.22173Z" fill="white"/>
<path d="M8.47524 7.41913C9.05775 6.91704 9.82949 6.6089 10.6524 6.55004C11.4754 6.49119 12.2958 6.68553 12.9673 7.09801C13.0303 7.14673 13.1144 7.16984 13.1987 7.16184C13.2829 7.15384 13.3591 7.11544 13.4082 7.05605C13.4574 6.99684 13.4746 6.92235 13.4555 6.85158C13.4366 6.78064 13.3832 6.72002 13.309 6.68517C12.2527 6.03907 10.9013 5.86269 9.66893 6.20975C8.43653 6.55681 7.46998 7.38607 7.06546 8.44341C6.66093 9.50075 6.86672 10.66 7.61958 11.5662C7.67512 11.6331 7.76465 11.6729 7.86019 11.6733C7.92215 11.6729 7.98245 11.656 8.0326 11.6249C8.1671 11.5463 8.20295 11.3895 8.1128 11.273C7.63181 10.6972 7.40551 9.99326 7.47411 9.28703C7.54271 8.58099 7.90184 7.91887 8.48708 7.4191L8.47524 7.41913Z" fill="white"/>
<path d="M13.8584 7.4496C13.726 7.53156 13.6955 7.6898 13.79 7.80395C14.4366 8.57877 14.6144 9.57161 14.2688 10.4773C13.9231 11.383 13.0952 12.0931 12.0395 12.3899C10.984 12.6864 9.82687 12.5339 8.92377 11.9792C8.79114 11.8997 8.60898 11.9258 8.51365 12.0377C8.41915 12.1518 8.44961 12.31 8.58204 12.392C9.27649 12.8148 10.1073 13.0412 10.9588 13.0394H11.2738C12.2381 12.9741 13.1441 12.6168 13.8299 12.0313C14.5156 11.4458 14.9365 10.6705 15.0173 9.84334C15.0983 9.01622 14.8339 8.19124 14.2715 7.51597C14.1768 7.40164 13.9923 7.37426 13.8584 7.4548L13.8584 7.4496Z" fill="white"/>
</svg>
