<svg width="42" height="31" viewBox="0 0 42 31" fill="none" xmlns="http://www.w3.org/2000/svg">
<path d="M4.46382 0C1.98586 0 0 2.12517 0 4.64625V25.5776C0 28.0986 1.98595 30.2396 4.46382 30.2396H37.1998C39.6778 30.2396 41.6636 28.0986 41.6636 25.5776V4.64625C41.6636 2.12517 39.6777 0 37.1998 0H4.46382ZM4.68075 3.02418H36.9987L21.7157 17.7662C21.1597 18.3027 20.5373 18.3034 19.9795 17.7662L4.68075 3.02418ZM2.97575 5.54418L13.1128 15.3092L2.97575 25.5782V5.54418ZM38.6877 5.54418V25.5782L28.5818 15.293L38.6877 5.54418ZM26.4428 17.3729L36.0988 27.2171H5.57975L15.2677 17.3891L17.9339 19.9562C19.5499 21.5125 22.1462 21.515 23.762 19.9562L26.4428 17.3729Z" fill="#F6F8FF"/>
</svg>
