<svg width="16" height="15" viewBox="0 0 16 15" fill="none" xmlns="http://www.w3.org/2000/svg">
<path d="M1.66397 0.243103C1.08069 0.243103 0.60791 0.787575 0.60791 1.45931C0.60791 2.13089 1.08069 2.67551 1.66397 2.67551H14.336C14.9193 2.67551 15.392 2.13104 15.392 1.45931C15.392 0.787575 14.9193 0.243103 14.336 0.243103H1.66397ZM1.66397 5.91838C1.08069 5.91838 0.60791 6.46285 0.60791 7.13459C0.60791 7.80617 1.08069 8.35079 1.66397 8.35079H14.336C14.9193 8.35079 15.392 7.80632 15.392 7.13459C15.392 6.46285 14.9193 5.91838 14.336 5.91838H1.66397ZM1.66397 11.5937C1.08069 11.5937 0.60791 12.1381 0.60791 12.8099C0.60791 13.4815 1.08069 14.0261 1.66397 14.0261H14.336C14.9193 14.0261 15.392 13.4816 15.392 12.8099C15.392 12.1381 14.9193 11.5937 14.336 11.5937H1.66397Z" fill="white"/>
</svg>
