<svg width="22" height="18" viewBox="0 0 22 18" fill="none" xmlns="http://www.w3.org/2000/svg">
<path d="M17.5508 11.4596C16.9386 11.4409 15.8957 11.422 14.8073 11.422C14.8073 10.2576 14.8299 9.26225 14.8299 9.24337L14.8301 9.2435C14.8301 9.22477 14.8075 8.21049 14.8075 7.06483C15.8957 7.06483 16.9387 7.06483 17.551 7.02723C19.9767 6.91456 21.2691 5.82522 21.2691 3.90962C21.2691 2.01263 19.7955 0.79187 17.5054 0.79187C15.2835 0.79187 13.8325 1.97513 13.7417 3.89073C13.7191 4.39786 13.7191 5.26174 13.7191 6.16335C12.3134 6.16335 11.089 6.14462 11.0664 6.14462C11.0437 6.14462 9.81933 6.16335 8.41366 6.16335C8.41366 5.26188 8.41366 4.39786 8.39104 3.89073C8.27765 1.97513 6.84922 0.79187 4.62733 0.79187C2.3373 0.79187 0.863617 2.01259 0.863617 3.90962C0.863617 5.82535 2.15604 6.91471 4.58194 7.02736C5.19415 7.0461 6.23701 7.06496 7.32543 7.06496C7.32543 8.22937 7.30281 9.22475 7.30281 9.24364L7.30265 9.24351C7.30265 9.26224 7.32527 10.2765 7.32527 11.4222C6.23702 11.4222 5.19399 11.4222 4.58179 11.4598C2.15605 11.5724 0.863621 12.6618 0.863621 14.5774C0.863621 16.4744 2.33727 17.6951 4.62733 17.6951C6.84922 17.6951 8.30027 16.5119 8.39105 14.5963C8.41366 14.0891 8.41366 13.2253 8.41366 12.3237C9.81933 12.3237 11.0437 12.3424 11.0664 12.3424C11.089 12.3424 12.3134 12.3237 13.7191 12.3237C13.7191 13.2251 13.7191 14.0891 13.7417 14.5963C13.8551 16.5119 15.2835 17.6951 17.5054 17.6951C19.7954 17.6951 21.2691 16.4744 21.2691 14.5774C21.2691 12.6618 19.9767 11.5724 17.5508 11.4596V11.4596ZM14.8301 3.92831C14.8981 2.48211 15.8503 1.67457 17.5054 1.67457C19.2059 1.67457 20.1807 2.48211 20.1807 3.89071C20.1807 5.33691 19.3419 6.03179 17.46 6.10685C16.8706 6.12558 15.8502 6.14445 14.7847 6.14445C14.7847 5.28057 14.8073 4.41656 14.8301 3.92831L14.8301 3.92831ZM7.32544 6.16333C6.25982 6.16333 5.21695 6.16333 4.65013 6.12573C2.7683 6.03179 1.92945 5.35566 1.92945 3.90959C1.92945 2.50098 2.90429 1.69345 4.60475 1.69345C6.25982 1.69345 7.21203 2.48227 7.28005 3.92847C7.32544 4.41662 7.34806 5.2806 7.32544 6.16336L7.32544 6.16333ZM7.30266 14.5586C7.23466 16.0048 6.28243 16.7936 4.62736 16.7936C2.92691 16.7936 1.95206 15.9861 1.95206 14.5775C1.95206 13.1313 2.79091 12.4364 4.67275 12.3614C5.19418 12.3426 6.07842 12.3238 7.00804 12.3238H7.34806C7.34806 13.2063 7.32545 14.0704 7.30267 14.5586L7.30266 14.5586ZM11.0664 11.4596C10.9304 11.4596 9.75136 11.4409 8.41367 11.422C8.41367 10.2951 8.39105 9.33728 8.39105 9.22459C8.39105 9.1119 8.41367 8.15398 8.41367 7.02717C9.77411 7.02717 10.9303 7.00843 11.0664 7.00843C11.2024 7.00843 12.3814 7.02717 13.7191 7.02717C13.7191 8.15412 13.7417 9.1119 13.7417 9.22459C13.7417 9.33728 13.7191 10.2952 13.7191 11.422C12.3814 11.4409 11.2024 11.4596 11.0664 11.4596ZM17.5054 16.8123C15.8504 16.8123 14.8981 16.0235 14.8301 14.5773C14.8075 14.089 14.8075 13.225 14.8075 12.3423C15.8731 12.3423 16.916 12.3423 17.4828 12.3799C19.3646 12.4738 20.2035 13.1499 20.2035 14.596C20.2035 15.9859 19.2059 16.8123 17.5054 16.8123L17.5054 16.8123Z" fill="white"/>
</svg>
