<svg width="42" height="44" viewBox="0 0 42 44" fill="none" xmlns="http://www.w3.org/2000/svg">
<path d="M0.237697 15.0914C0.340435 14.7338 0.442221 14.376 0.546238 14.0191C0.925385 12.7201 1.60131 11.5995 2.52121 10.6083C3.13606 9.94575 3.85997 9.42279 4.61734 8.96541C5.71882 8.29998 7.14032 8.53504 7.96096 9.60316C8.85953 10.773 9.73586 11.9608 10.6207 13.1415C11.1309 13.8218 11.6354 14.5073 12.1485 15.1857C13.0627 16.3948 12.9157 17.9041 11.7401 18.8793C10.9999 19.4935 10.2123 20.0498 9.44104 20.6249C9.22602 20.7852 8.99286 20.9207 8.76767 21.0674C9.60068 23.3559 10.5362 25.5141 11.8813 27.4729C13.9584 30.4969 16.0914 32.2339 18.402 33.921C19.0346 33.4401 19.6753 32.9499 20.3187 32.4633C20.6444 32.2174 20.9663 31.9668 21.3019 31.7343C22.2952 31.0482 23.4474 31.024 24.4077 31.7422C24.7804 32.0209 25.0654 32.4283 25.3517 32.8068C26.6193 34.4818 27.8668 36.1721 29.1343 37.8471C29.4947 38.3239 29.636 38.8659 29.7187 39.4366C29.6843 39.6773 29.6496 39.9181 29.6153 40.1589C29.4435 40.4668 29.3211 40.8193 29.0901 41.0743C28.3633 41.8788 27.4829 42.5035 26.5101 42.9717C24.7203 43.8324 22.8564 44.0576 20.9101 43.5544C18.8283 43.0159 16.9188 42.1052 15.1168 40.9551C13.7017 40.0524 12.3943 39.0049 11.1675 37.8621C9.6287 36.4279 8.21925 34.8702 6.94661 33.1952C5.71247 31.5708 4.53616 29.9066 3.48109 28.1582C2.27969 26.1673 1.23382 24.1084 0.592001 21.8618C0.220165 20.5614 -0.00376329 19.2405 5.57059e-05 17.8845C0.00132803 17.5041 0.000691826 17.1227 0.00132803 16.7423C0.080212 16.1923 0.159413 15.6417 0.237658 15.0915L0.237697 15.0914Z" fill="#F6F8FF"/>
<path d="M26.1966 10.8661C26.1966 12.0025 25.2755 12.9237 24.1389 12.9237C23.0023 12.9237 22.0812 12.0026 22.0812 10.8661C22.0812 9.72947 23.0023 8.80835 24.1389 8.80835C25.2755 8.80835 26.1966 9.72947 26.1966 10.8661Z" fill="#F6F8FF"/>
<path d="M31.7753 10.8661C31.7753 12.0025 30.8542 12.9237 29.7176 12.9237C28.5814 12.9237 27.6599 12.0026 27.6599 10.8661C27.6599 9.72947 28.5813 8.80835 29.7176 8.80835C30.8541 8.80835 31.7753 9.72947 31.7753 10.8661Z" fill="#F6F8FF"/>
<path d="M37.3564 10.8661C37.3564 12.0025 36.4353 12.9237 35.2987 12.9237C34.1621 12.9237 33.241 12.0026 33.241 10.8661C33.241 9.72947 34.1621 8.80835 35.2987 8.80835C36.4353 8.80835 37.3564 9.72947 37.3564 10.8661Z" fill="#F6F8FF"/>
<path d="M29.7176 0C23.2654 0 18.0155 4.95761 18.0155 11.0507C18.0155 13.8536 19.1285 16.5226 21.1518 18.579L20.688 19.5065C20.1985 20.484 20.3445 21.6491 21.0608 22.4749L21.0952 22.514C21.6054 23.0798 22.3351 23.404 23.0959 23.404C23.4206 23.404 23.7394 23.3464 24.0422 23.2322L27.5598 21.9128C28.2672 22.0375 28.9934 22.1008 29.718 22.1008C36.1702 22.1008 41.4201 17.1432 41.4201 11.0502C41.4198 4.95767 36.1701 0.000298899 29.718 0.000298899L29.7176 0ZM22.1788 20.2521L23.2068 18.195L23.0357 18.0519C20.9045 16.2665 19.6828 13.7149 19.6828 11.0504C19.6828 5.87615 24.1842 1.66572 29.718 1.66572C35.2514 1.66572 39.7533 5.87517 39.7533 11.0504C39.7533 16.2246 35.2518 20.435 29.718 20.435C28.9693 20.435 28.2224 20.3574 27.4985 20.2041L27.418 20.1869L23.4572 21.6723C23.3411 21.7159 23.2199 21.7378 23.0968 21.7378C22.8067 21.7378 22.5291 21.6138 22.3338 21.3988C22.0488 21.0823 21.9883 20.6322 22.1785 20.2524L22.1788 20.2521Z" fill="#F6F8FF"/>
</svg>
