<svg width="32" height="40" viewBox="0 0 32 40" fill="none" xmlns="http://www.w3.org/2000/svg">
<path fill-rule="evenodd" clip-rule="evenodd" d="M15.8 39.8643C7.07388 39.8643 0 37.318 0 34.1765C0 31.7422 4.25505 29.671 10.2277 28.8595C13.2396 33.0757 15.8 35.4404 15.8 35.4404C15.8 35.4404 18.3605 33.0753 21.3728 28.8595C27.3454 29.6711 31.6 31.7422 31.6 34.1765C31.6 37.318 24.5266 39.8643 15.8 39.8643ZM15.8 33.5443C15.8 33.5443 7.58389 23.4321 5.05781 15.7738C4.65399 14.6073 4.42386 13.3601 4.42386 12.057C4.42386 5.77444 9.51699 0.680969 15.7999 0.680969C22.0824 0.680969 27.1759 5.7741 27.1759 12.057C27.1759 13.3601 26.9457 14.6073 26.5428 15.7738C24.0158 24.0649 15.7998 33.5443 15.7998 33.5443H15.8ZM15.8 7.63229C13.3569 7.63229 11.3761 9.61305 11.3761 12.0562C11.3761 14.4993 13.3569 16.4801 15.8 16.4801C18.2431 16.4801 20.2239 14.4993 20.2239 12.0562C20.2239 9.61305 18.2431 7.63229 15.8 7.63229Z" fill="#218D4F" fill-opacity="0.46"/>
</svg>
