<svg width="43" height="53" viewBox="0 0 43 53" fill="none" xmlns="http://www.w3.org/2000/svg">
<path d="M15.6017 0.0952148H16.1859C17.8793 0.153468 19.6314 0.562467 21.0914 1.38001C22.9017 2.37276 24.4204 3.83281 25.4714 5.58482C26.4059 7.22002 26.9314 9.03031 26.9897 10.8993C27.0479 13.469 26.2303 16.0969 24.5952 18.141C25.9969 18.7834 27.34 19.601 28.4497 20.7107C29.5007 21.7035 30.3187 22.93 30.8442 24.2731C31.1945 25.149 31.3697 26.0834 31.4866 27.0179C33.4138 27.2514 35.2242 27.8938 36.8594 28.9451C39.0787 30.4051 40.8304 32.5075 41.7649 34.9603C42.2904 36.362 42.5825 37.822 42.6407 39.282V39.9827C42.5825 41.9099 42.0566 43.8372 41.1807 45.5893C39.8376 48.1003 37.6765 50.1445 35.1073 51.2541C33.6473 51.8965 32.0121 52.2469 30.377 52.3051H29.7346C27.9243 52.2469 26.1139 51.8379 24.4788 51.0203C22.4933 50.0276 20.7412 48.5093 19.5146 46.6403C18.4636 45.0634 17.8212 43.2531 17.5291 41.3845C15.3098 41.4428 13.0908 41.3845 10.9298 41.0342C9.11952 40.7421 7.30912 40.2749 5.67403 39.4573C4.21403 38.6979 2.87093 37.647 1.87823 36.3039C0.827244 34.8439 0.359939 33.0336 0.301331 31.2232V28.0111C0.301331 26.4928 0.651668 24.9742 1.29408 23.6311C1.87825 22.4632 2.63717 21.3535 3.62987 20.4777C4.68086 19.4849 5.90747 18.7256 7.25057 18.1419C6.31607 16.9153 5.61537 15.514 5.20636 13.9953C4.68085 11.8929 4.7391 9.67359 5.43978 7.68809C6.1991 5.3523 7.83428 3.2498 9.87807 1.90639C11.5137 0.795952 13.5578 0.153448 15.602 0.0952566L15.6017 0.0952148ZM11.8058 3.89105C10.4041 4.70863 9.23609 5.87654 8.47679 7.33654C7.77611 8.67964 7.4258 10.1982 7.54229 11.7165C7.60055 13.2348 8.12646 14.7534 9.00229 15.9796C9.93679 17.3227 11.2216 18.4324 12.7399 19.0165C13.1489 19.1917 13.4406 19.4838 13.5575 19.8924C13.7326 20.4179 13.4992 21.0603 13.032 21.4107C12.6816 21.6441 12.2144 21.7028 11.8054 21.5858C10.9295 21.2355 10.112 20.7683 9.35256 20.2427C7.54226 20.8852 5.79016 21.9361 4.56355 23.4548C3.80423 24.4476 3.27875 25.6742 3.10355 26.9003C2.98664 27.7762 2.98663 28.5937 2.98663 29.4701C2.98663 30.5798 2.92838 31.6894 3.1618 32.7403C3.33697 33.5579 3.74597 34.3755 4.27151 35.0761C4.79701 35.7186 5.4394 36.244 6.14052 36.7113C7.54222 37.5289 9.06052 37.9961 10.6374 38.2882C12.8567 38.6972 15.1343 38.7555 17.4119 38.6972C17.5288 37.5293 17.7623 36.4196 18.1712 35.31C19.164 32.6234 21.033 30.3458 23.4858 28.8276C25.121 27.8349 26.9312 27.2507 28.8003 27.0173C28.6251 25.5573 28.0409 24.2142 27.0482 23.1045C25.8215 21.7028 24.1864 20.7688 22.493 20.1845C21.7336 20.7687 20.8578 21.2355 19.982 21.5862C19.2813 21.8197 18.522 21.4111 18.2886 20.7104C18.0551 20.068 18.4055 19.2504 19.0479 19.017C20.8582 18.3163 22.4351 16.9146 23.3696 15.1625C24.2454 13.5273 24.5962 11.5418 24.2454 9.73153C23.8951 7.57083 22.6102 5.58492 20.8582 4.30054C19.5734 3.36604 18.0551 2.84054 16.5365 2.72363C14.8427 2.72322 13.2075 3.07356 11.8058 3.89111L11.8058 3.89105ZM29.2674 29.8207C27.3402 29.9376 25.4716 30.6965 23.8946 31.8649C22.4346 33.0328 21.2667 34.5515 20.6825 36.3032C20.0401 38.0553 19.9232 39.9825 20.2735 41.7929C20.5656 43.2529 21.208 44.596 22.1425 45.8226C23.3104 47.3409 24.9456 48.5674 26.7559 49.1516C28.6831 49.7941 30.7856 49.8523 32.7128 49.3268C34.4062 48.8596 35.9831 47.8668 37.1511 46.582C38.2021 45.4723 39.0201 44.071 39.4287 42.5523C40.0711 40.4499 39.9542 38.114 39.1366 36.0116C38.2608 33.7923 36.5087 31.9237 34.4063 30.814C32.9468 29.996 31.0777 29.6457 29.2674 29.8208L29.2674 29.8207Z" fill="#218D4F" fill-opacity="0.46"/>
<path d="M35.1073 35.252C35.4577 35.0186 35.9249 35.0769 36.217 35.3689C36.626 35.7193 36.5674 36.3617 36.217 36.712C33.5304 39.3986 30.8442 42.0848 28.2163 44.7713C27.9829 45.0634 27.5739 45.1803 27.2236 45.0634C26.9902 45.0052 26.8146 44.83 26.6981 44.6544C25.4715 43.4278 24.3036 42.2016 23.0774 41.0337C22.9022 40.8586 22.727 40.6834 22.6101 40.4496C22.4932 40.0992 22.6101 39.632 22.9605 39.3986C23.3108 39.1652 23.8363 39.1651 24.1284 39.5155C25.2381 40.6834 26.406 41.7931 27.5156 42.961C29.9101 40.5665 32.3046 38.172 34.6404 35.7779C34.8151 35.5441 34.9903 35.3689 35.1072 35.252L35.1073 35.252Z" fill="#218D4F" fill-opacity="0.46"/>
</svg>
