<svg width="56" height="53" viewBox="0 0 56 53" fill="none" xmlns="http://www.w3.org/2000/svg">
<path d="M19.3236 37.3336L20.4486 34.709C19.697 34.2988 18.8641 34.034 18.0006 33.9305C17.1368 34.0391 16.3048 34.3059 15.5526 34.7164L16.6776 37.3336L19.3236 37.3336Z" fill="#A0CEB3"/>
<path d="M43.0001 34.5336C41.4088 34.5336 39.8824 35.1234 38.7574 36.1738C37.632 37.2238 37.0001 38.6484 37.0001 40.1336C37.0001 41.6188 37.632 43.0434 38.7574 44.0934C39.8824 45.1438 41.4088 45.7336 43.0001 45.7336C44.5914 45.7336 46.1177 45.1438 47.2427 44.0934C48.3681 43.0434 49.0001 41.6188 49.0001 40.1336C48.9984 38.6488 48.366 37.2254 47.241 36.1754C46.116 35.1254 44.5909 34.5352 43.0001 34.5336ZM43.0001 43.8668C41.9391 43.8668 40.9217 43.4734 40.1717 42.7734C39.4217 42.0734 39.0002 41.1238 39.0002 40.1336C39.0002 39.1434 39.4217 38.1938 40.1717 37.4938C40.9218 36.7938 41.9391 36.4004 43.0001 36.4004C44.061 36.4004 45.0784 36.7938 45.8284 37.4938C46.5784 38.1938 46.9999 39.1434 46.9999 40.1336C46.9999 41.1238 46.5785 42.0734 45.8284 42.7734C45.0784 43.4734 44.061 43.8668 43.0001 43.8668Z" fill="#A0CEB3"/>
<path d="M54.0004 18.6666H52.0003C51.47 18.6666 50.9611 18.4701 50.5861 18.1201C50.2111 17.7701 50.0002 17.2951 50.0002 16.8002V11.2002H42.0005V16.8002C42.0005 17.2951 41.7895 17.7701 41.4145 18.1201C41.0395 18.4701 40.5306 18.6666 40.0003 18.6666H38.0002C37.4754 18.6666 36.971 18.8592 36.5968 19.2033C36.2227 19.5471 36.0084 20.0143 36.0004 20.5045V20.5334V20.635C36.0574 21.1303 36.3127 21.5869 36.7149 21.9143C37.1171 22.2416 37.6369 22.4151 38.1705 22.4002H54.0009C54.7153 22.4002 55.3753 22.0444 55.7327 21.4666C56.0901 20.8893 56.0901 20.1775 55.7327 19.6002C55.3753 19.0225 54.7153 18.6667 54.0009 18.6667L54.0004 18.6666Z" fill="#A0CEB3"/>
<path d="M53.8076 38.4106C53.5083 38.2997 53.2853 38.061 53.2074 37.7696C52.955 36.8196 52.5503 35.9106 52.0075 35.0731C51.8414 34.8161 51.8179 34.5 51.9443 34.2239L52.8605 32.2274C52.6483 31.9957 52.4244 31.7711 52.1917 31.5543C51.9586 31.3379 51.7187 31.1278 51.4706 30.9301L49.3314 31.7852V31.7848C49.0355 31.9031 48.697 31.8813 48.4216 31.7262C47.5242 31.2192 46.5503 30.8418 45.5325 30.6063C45.2202 30.5336 44.9645 30.325 44.8452 30.0461L43.9822 28.034C43.3281 27.9864 42.6706 27.9864 42.0164 28.034L41.1534 30.0461C41.0341 30.325 40.7784 30.5336 40.4661 30.6063C39.4483 30.8418 38.4744 31.2192 37.5775 31.7262C37.3017 31.8813 36.9631 31.9031 36.6672 31.7848L34.5281 30.9297C34.2799 31.1278 34.0392 31.3367 33.8069 31.5539C33.5751 31.7715 33.3499 31.9953 33.1381 32.227L34.0543 34.2235V34.2239C34.1811 34.5 34.1577 34.8161 33.9911 35.0731C33.4483 35.9106 33.0435 36.8196 32.7912 37.7696C32.7133 38.061 32.4903 38.2997 32.1914 38.4106L30.0356 39.2161C30.0122 39.5169 30.0005 39.8227 30.0005 40.1336C30.0005 40.4407 30.0126 40.7477 30.0373 41.0512L32.1931 41.8567C32.4924 41.9676 32.7154 42.2063 32.7933 42.4977C33.0457 43.4477 33.4504 44.3567 33.9932 45.1942C34.1593 45.4512 34.1828 45.7673 34.0564 46.0434L33.1402 48.0399C33.3524 48.2716 33.5763 48.4962 33.809 48.713C34.0421 48.9294 34.282 49.1395 34.5301 49.3372L36.6693 48.4821V48.4825C36.9647 48.3634 37.3042 48.3852 37.5791 48.5411C38.4765 49.0481 39.4504 49.4255 40.4682 49.661C40.7805 49.7337 41.0362 49.9423 41.1555 50.2212L42.0185 52.2333C42.6726 52.2809 43.3301 52.2809 43.9843 52.2333L44.8473 50.2212C44.9666 49.9423 45.2223 49.7337 45.5346 49.661C46.5524 49.4255 47.5263 49.0481 48.4232 48.5411C48.6986 48.3849 49.0376 48.363 49.3335 48.4825L51.4726 49.3376C51.7208 49.1395 51.9615 48.9306 52.1938 48.7134C52.4256 48.4958 52.6508 48.272 52.8626 48.0403L51.9464 46.0438V46.0434C51.8196 45.7673 51.843 45.4512 52.0096 45.1942C52.5524 44.3567 52.9572 43.4477 53.2095 42.4977C53.2874 42.2063 53.5104 41.9676 53.8093 41.8567L55.9651 41.0512C55.9885 40.7505 56.0002 40.4446 56.0002 40.1336C56.0002 39.8266 55.9881 39.5196 55.9634 39.2161L53.8076 38.4106ZM43.0001 47.6004C40.8781 47.6004 38.8437 46.8137 37.3433 45.4133C35.8428 44.0129 34.9999 42.1141 34.9999 40.1336C34.9999 38.1531 35.8429 36.2543 37.3433 34.8539C38.8437 33.4535 40.8781 32.6668 43.0001 32.6668C45.1221 32.6668 47.1565 33.4535 48.6569 34.8539C50.1573 36.2543 51.0002 38.1531 51.0002 40.1336C50.9977 42.1133 50.154 44.0109 48.6543 45.4109C47.1543 46.8105 45.1211 47.598 43.0001 47.6004Z" fill="#A0CEB3"/>
<path d="M45.0004 40.1336C45.0004 41.1645 44.1048 42.0004 43.0003 42.0004C41.8958 42.0004 41.0001 41.1645 41.0001 40.1336C41.0001 39.1027 41.8958 38.2668 43.0003 38.2668C44.1048 38.2668 45.0004 39.1027 45.0004 40.1336Z" fill="#A0CEB3"/>
<path d="M14.979 38.3976L14.0792 36.3078C14.0352 36.4117 13.9976 36.518 13.9662 36.6262C13.8908 36.909 13.6778 37.1426 13.3911 37.2578C13.1044 37.373 12.7763 37.3566 12.5043 37.2133C12.1142 36.9933 11.7476 36.7394 11.4094 36.4543C11.7722 39.4426 12.721 42.343 14.2093 45.0102L14.979 38.3976Z" fill="#A0CEB3"/>
<path d="M14.8622 32.9266C13.923 32.4547 13.1161 31.7832 12.5072 30.9664C11.9079 31.1492 11.3844 31.5008 11.0072 31.9726C11.1047 33.1062 11.6639 34.1624 12.5691 34.9238C13.1174 34.0699 13.9117 33.3777 14.8622 32.9265V32.9266Z" fill="#A0CEB3"/>
<path d="M22.0001 29.6696V29.1442C19.4337 30.1086 16.5668 30.1086 13.9999 29.1442V29.6735C14.218 30.0731 15.1618 31.4469 17.9998 32.0348C20.827 31.4539 21.7741 30.084 22.0001 29.6696V29.6696Z" fill="#A0CEB3"/>
<path d="M20.0276 47.1556L19.1005 39.2001H16.9004L15.9762 47.154H15.9767C16.5643 47.6958 17.2494 48.1376 18.0007 48.4587C18.7528 48.1384 19.4388 47.6974 20.0276 47.1556H20.0276Z" fill="#A0CEB3"/>
<path d="M36.0004 7.46679V17.3023C36.6081 16.9742 37.2978 16.8007 38.0002 16.8003H40.0003V5.60034H38.0002C37.4699 5.60034 36.961 5.79682 36.586 6.14682C36.211 6.49682 36.0005 6.97182 36.0005 7.46672L36.0004 7.46679Z" fill="#A0CEB3"/>
<path d="M29.2001 37.5206L30.9922 36.8514C31.2442 36.0464 31.5886 35.2694 32.0202 34.5338L31.7473 33.9401C30.3037 33.1346 28.6573 32.6999 26.9752 32.6803C26.8313 36.0131 25.8344 47.0533 19.0002 50.0823V52.2671H34.9998C35.2652 52.2671 35.5196 52.1691 35.7071 51.9941C35.8946 51.8187 36.0001 51.5816 36.0001 51.3339V50.7804L35.2183 51.0921H35.2179C34.9082 51.2163 34.5671 51.2581 34.2335 51.2128C33.8995 51.1671 33.586 51.0362 33.327 50.8347C33.0059 50.5827 32.6929 50.3128 32.3941 50.0331C32.0952 49.753 31.8052 49.462 31.5353 49.1612H31.5348C31.3185 48.9194 31.1783 48.6265 31.1297 48.3148C31.0807 48.003 31.1255 47.6847 31.259 47.3952L32.0199 45.7339C31.5867 44.9976 31.2402 44.2198 30.987 43.4136L29.1999 42.7472C28.8885 42.6335 28.6168 42.441 28.416 42.1914C28.2146 41.9417 28.092 41.6453 28.061 41.3343C28.0179 40.9374 27.9999 40.5363 27.9999 40.1339C27.9999 39.7316 28.0179 39.3304 28.056 38.9335C28.0874 38.6222 28.2109 38.3249 28.413 38.0753C28.6152 37.8257 28.8876 37.6339 29.1999 37.5206L29.2001 37.5206Z" fill="#A0CEB3"/>
<path d="M54.0004 5.60041H52.0003V16.8004H54.0004C54.7027 16.7992 55.3929 16.9723 56.0001 17.3016V7.46678C56.0001 6.97186 55.7896 6.49686 55.4146 6.14688C55.0396 5.7969 54.5307 5.6004 54.0004 5.6004L54.0004 5.60041Z" fill="#A0CEB3"/>
<path d="M1.00007 52.2666H16.9997V50.0779C10.1639 47.0447 9.16778 36.0019 9.02464 32.6729C6.69343 32.6413 4.44182 33.4647 2.75389 34.9663C1.06639 36.4679 0.0774643 38.5272 0 40.7022V51.3332C0 51.5808 0.10505 51.818 0.292553 51.9934C0.480471 52.1684 0.734518 52.2664 0.999868 52.2664L1.00007 52.2666Z" fill="#A0CEB3"/>
<path d="M7.00007 11.0926C7.021 10.4977 7.27965 9.9313 7.7258 9.5055C8.17153 9.08011 8.77211 8.82581 9.40912 8.793C12.15 8.68206 17.5432 7.83831 20.3666 6.05V6.04961C20.9726 5.67617 21.7218 5.56445 22.4225 5.74258C24.5407 6.23711 27.9474 7.89488 28.8004 11.1309C29.1888 11.0426 29.5947 11.0453 29.9814 11.1383C29.9299 8.1918 28.6492 5.3801 26.4123 3.3004C24.1752 1.2207 21.1577 0.0367 18.0007 0C14.8446 0.035938 11.8279 1.2188 9.5904 3.2965C7.35337 5.3746 6.07183 8.1844 6.0174 11.1297C6.33925 11.0559 6.67365 11.043 7.00052 11.0926L7.00007 11.0926Z" fill="#A0CEB3"/>
<path d="M6.65936 17.5966C6.87532 18.0349 7.28966 18.3603 7.7894 18.4841C8.14598 18.5822 8.46113 18.7806 8.69174 19.0521C8.92276 19.324 9.05754 19.6556 9.07846 20.0017C9.19691 22.1439 10.1859 24.1634 11.8433 25.6494C13.5007 27.1354 15.7026 27.976 18.0007 28.0006C20.2988 27.976 22.5002 27.1354 24.1581 25.6494C25.8155 24.1635 26.804 22.1439 26.9225 20.0017C26.9421 19.6591 27.074 19.3302 27.3004 19.0595C27.5268 18.7892 27.8369 18.5904 28.1885 18.4896C28.6995 18.3681 29.1243 18.0372 29.3445 17.59C29.927 16.3412 30.1531 14.9724 30.0007 13.6177C30.0041 13.3903 29.8927 13.1743 29.7006 13.0345C29.5793 12.9407 29.4165 12.9079 29.2645 12.9466C29.1385 13.0005 29.0385 13.0962 28.9845 13.2153C28.8933 13.688 28.4333 14.0189 27.9206 13.9802C27.4079 13.9419 27.0099 13.547 27.0007 13.0669V12.6934C27.0007 8.78015 22.1358 7.59935 21.9286 7.55085C21.7787 7.51023 21.6176 7.5278 21.4824 7.60046C18.3004 9.61376 12.5766 10.5329 9.50064 10.6579C9.20976 10.6848 8.99087 10.918 9.00091 11.1911V13.0669C9.00008 13.5528 8.59954 13.9571 8.08058 13.9958C7.5616 14.0344 7.09746 13.695 7.01376 13.2153C6.95893 13.0958 6.85848 12.9997 6.73167 12.9458C6.69107 12.9352 6.64922 12.9298 6.60694 12.9298C6.49436 12.9325 6.38596 12.9692 6.29766 13.0344C6.10555 13.1743 5.99465 13.3903 5.99757 13.6176C5.84648 14.975 6.07458 16.3457 6.65968 17.5965L6.65936 17.5966Z" fill="#A0CEB3"/>
<path d="M22.6054 37.2576C22.3183 37.1424 22.1057 36.9088 22.0304 36.626C21.999 36.5182 21.9613 36.4119 21.9174 36.3076L21.0175 38.3974L21.7864 45.0146C23.2759 42.3455 24.2252 39.4427 24.5863 36.4521C24.2465 36.7381 23.8782 36.9927 23.4864 37.2131C23.2144 37.3564 22.8862 37.3728 22.5991 37.2576L22.6054 37.2576Z" fill="#A0CEB3"/>
<path d="M23.4926 30.9626C22.8836 31.7798 22.0767 32.4513 21.1376 32.9228C22.0876 33.3732 22.8824 34.0646 23.4306 34.9173C24.3359 34.1552 24.8946 33.0993 24.9926 31.9653C24.6155 31.4946 24.0915 31.1446 23.4926 30.9626Z" fill="#A0CEB3"/>
</svg>
