<svg width="27" height="20" viewBox="0 0 27 20" fill="none" xmlns="http://www.w3.org/2000/svg">
<path d="M26.0982 4.57057C26.0259 4.36199 25.8104 4.21071 25.5528 4.18721L22.4498 3.90139C21.6066 2.16233 20.2139 0.934214 18.4023 0.339521C17.7916 0.139087 17.1403 0.0377197 16.4672 0.0377197C13.492 0.0377197 10.8137 1.99535 10.4975 4.40168C10.4283 4.92741 10.458 5.44775 10.5795 5.94784L5.66046 2.5219C5.52335 2.42637 5.3455 2.38337 5.16817 2.4021C4.99142 2.4213 4.83193 2.50117 4.7284 2.62266C4.67848 2.68148 -0.0637939 8.38007 5.26382 13.1254C3.85111 14.0961 1.65466 15.5358 1.17798 15.8476C1.02857 15.9454 0.938823 16.0933 0.932212 16.2521C0.925605 16.4105 1.00361 16.5633 1.14457 16.6694C3.2228 18.2319 5.79318 19.1932 8.5779 19.4495C9.06596 19.4944 9.56153 19.5174 10.0501 19.5174H10.0508C16.8409 19.5174 22.523 15.2521 23.2673 9.59539C23.3839 8.70534 23.391 7.77337 23.2881 6.88056L25.8835 5.13918C26.0858 5.00295 26.1706 4.77856 26.0983 4.57028L26.0982 4.57057ZM22.2117 6.22702C22.0388 6.34313 21.9496 6.52559 21.9758 6.70989C22.1058 7.61162 22.1119 8.56859 21.9922 9.47799C21.3197 14.5902 16.1855 18.4446 10.0495 18.4442C9.60754 18.4442 9.15934 18.4238 8.71734 18.3829C6.45736 18.1751 4.35361 17.4531 2.58836 16.2858C3.63842 15.5951 5.58669 14.307 6.62703 13.573C6.76707 13.4744 6.84985 13.3303 6.85462 13.1774C6.85958 13.0245 6.78616 12.8771 6.65272 12.772C2.23266 9.29419 4.43701 5.1521 5.40315 3.73939L12.3694 8.59051C12.6358 8.7762 13.0304 8.75085 13.2598 8.53322C13.4896 8.31574 13.4709 7.98493 13.2174 7.78664C12.1371 6.93976 11.6099 5.74884 11.7713 4.51908C12.0183 2.63961 14.1247 1.11063 16.4665 1.11063C16.9787 1.11063 17.4725 1.18727 17.9334 1.33856C19.5221 1.86016 20.6849 2.95231 21.3889 4.5845C21.4805 4.7966 21.7168 4.93191 21.9752 4.93729L23.8736 5.11207L22.2117 6.22702Z" fill="white"/>
<path d="M17.1218 3.10796C16.0828 3.01197 15.1745 3.64029 15.0623 4.48965C14.9494 5.34546 15.6904 6.11862 16.7131 6.21275C16.7823 6.2192 16.8507 6.22227 16.9188 6.22227C17.8714 6.22227 18.6683 5.62451 18.7728 4.83138C18.8855 3.97541 18.1451 3.20241 17.1218 3.10797L17.1218 3.10796ZM17.4986 4.71404C17.4634 4.98052 17.176 5.17513 16.8536 5.14655C16.5337 5.11706 16.3016 4.87501 16.3372 4.60729C16.3695 4.35894 16.6187 4.17157 16.9168 4.17157C16.9381 4.17157 16.9599 4.17249 16.9816 4.17448C17.3017 4.20397 17.5335 4.44618 17.4986 4.71405L17.4986 4.71404Z" fill="white"/>
</svg>
